<?xml version="1.0" standalone="no"?>
<!DOCTYPE svg PUBLIC "-//W3C//DTD SVG 20010904//EN"
 "http://www.w3.org/TR/2001/REC-SVG-20010904/DTD/svg10.dtd">
<svg version="1.0" xmlns="http://www.w3.org/2000/svg"
 width="287.000000pt" height="206.000000pt" viewBox="0 0 287.000000 206.000000"
 preserveAspectRatio="xMidYMid meet">

<g transform="translate(0.000000,206.000000) scale(0.100000,-0.100000)"
fill="#000000" stroke="none">
<path d="M169 1888 c-1 -13 -2 -36 -1 -53 0 -29 0 -29 -21 12 -36 69 -67 24
-42 -59 14 -49 7 -70 -15 -43 -7 8 -16 12 -21 9 -17 -10 -9 -110 12 -170 12
-32 23 -86 23 -119 2 -77 19 -134 52 -171 14 -16 34 -47 45 -70 11 -23 34 -55
51 -73 27 -27 37 -31 85 -31 36 0 60 -5 70 -16 14 -14 14 -20 -7 -65 -21 -44
-46 -73 -130 -151 -49 -44 -60 -71 -48 -116 26 -104 231 -232 287 -180 10 10
15 10 18 1 9 -25 83 5 83 33 0 7 6 11 14 8 18 -7 56 30 56 54 0 9 13 30 29 45
46 43 47 61 8 109 -52 65 -53 69 -17 62 30 -6 30 -6 30 35 0 40 -1 41 -45 52
l-45 11 0 48 c0 30 10 70 29 111 15 35 31 77 35 93 6 26 8 27 20 11 8 -11 18
-15 26 -10 10 6 12 2 6 -16 -29 -101 -26 -193 8 -271 99 -227 404 -374 735
-355 308 18 560 169 636 381 21 56 24 180 6 214 -8 16 -6 21 14 32 14 7 25 17
25 22 0 16 20 7 20 -9 0 -10 14 -45 30 -78 22 -43 30 -74 30 -111 l0 -52 -40
-7 c-22 -4 -41 -10 -41 -13 -12 -72 -4 -91 31 -72 23 12 27 -1 7 -22 -25 -26
-57 -76 -57 -90 0 -8 13 -27 30 -43 17 -16 30 -36 30 -45 0 -20 36 -55 56 -55
7 0 14 -4 15 -10 3 -31 69 -50 84 -25 5 8 11 7 21 -1 26 -21 100 -4 162 36 31
21 61 44 65 52 5 7 17 22 28 32 32 30 36 84 8 123 -13 18 -30 37 -38 42 -41
25 -100 90 -120 135 -22 46 -22 51 -8 66 9 9 30 15 49 14 18 -1 42 -1 53 0 30
2 80 52 94 92 6 19 24 47 41 62 34 33 65 123 55 165 -4 18 3 51 20 95 16 45
25 88 25 127 0 62 -7 71 -34 45 -24 -24 -26 -18 -10 36 17 55 12 99 -10 99 -7
0 -19 -14 -26 -30 -19 -46 -26 -44 -26 8 1 59 -25 71 -44 20 -22 -59 -121
-249 -166 -319 -42 -64 -69 -91 -136 -133 l-27 -18 -26 42 c-29 46 -60 62 -92
47 -20 -9 -39 -49 -34 -71 3 -14 -27 12 -89 76 -77 79 -94 98 -115 136 -11 17
-23 32 -28 32 -11 0 -57 51 -57 63 0 4 -7 7 -16 7 -41 0 19 -163 90 -246 20
-23 59 -56 87 -75 48 -30 50 -33 29 -41 -19 -7 -29 -1 -62 37 -116 131 -312
212 -540 222 -257 12 -476 -58 -620 -197 -27 -26 -61 -50 -74 -53 -33 -6 -30
-1 14 26 99 63 195 201 208 300 9 61 -9 68 -43 18 -16 -22 -32 -40 -38 -41 -5
0 -22 -19 -37 -43 -35 -54 -209 -237 -207 -217 4 46 -25 90 -61 90 -20 0 -65
-47 -75 -77 -8 -28 -17 -28 -52 -5 -49 31 -102 90 -144 159 -38 61 -147 280
-162 326 -9 25 -37 21 -38 -5z m96 -178 c95 -189 145 -259 229 -321 52 -38 72
-37 90 5 18 44 60 73 80 57 24 -20 26 -50 5 -62 -18 -9 -18 -12 -4 -39 15 -29
15 -30 -12 -36 -63 -14 -95 -27 -153 -65 -34 -22 -66 -36 -72 -33 -6 4 -8 2
-5 -4 11 -16 -51 -62 -84 -62 -51 0 -85 26 -112 83 -14 29 -35 61 -46 71 -28
25 -50 100 -49 161 1 34 -7 71 -25 117 -15 36 -27 84 -27 105 l0 38 21 -32
c21 -33 51 -49 69 -38 6 4 4 15 -6 30 -16 24 -44 117 -44 145 0 8 13 -8 29
-35 16 -28 36 -57 45 -65 15 -12 16 -9 10 31 -3 24 -10 58 -14 76 -4 17 -5 35
-2 38 4 4 10 -6 13 -22 3 -15 32 -80 64 -143z m2436 87 c-7 -24 -11 -57 -9
-73 3 -28 4 -28 42 29 21 31 40 57 41 57 7 0 -26 -115 -39 -135 -37 -57 0 -62
51 -7 l36 37 -6 -40 c-4 -22 -18 -69 -32 -104 -16 -41 -25 -85 -25 -118 0 -60
-20 -116 -54 -153 -13 -14 -32 -42 -41 -63 -21 -46 -47 -64 -95 -68 -28 -2
-47 6 -100 45 -76 56 -150 94 -202 102 -40 7 -50 28 -26 52 9 9 8 15 -6 25
-21 15 -15 51 10 61 15 6 52 -26 84 -74 16 -22 17 -22 49 -5 55 28 119 94 165
169 59 96 156 285 156 304 0 8 3 12 6 9 4 -4 1 -26 -5 -50z m-1723 -179 c-32
-86 -68 -129 -143 -175 -38 -24 -65 -43 -61 -43 15 0 -15 -28 -52 -50 l-37
-22 29 31 c17 17 37 31 45 31 13 0 13 2 3 9 -11 6 -7 13 16 29 16 12 55 54 88
94 52 65 125 148 130 148 1 0 -7 -23 -18 -52z m1108 -155 c39 -40 66 -73 60
-73 -6 0 3 -8 19 -18 17 -11 37 -27 45 -37 13 -17 13 -18 0 -9 -56 34 -99 68
-95 74 3 4 -10 14 -28 21 -68 28 -132 104 -162 190 l-15 44 52 -59 c29 -33 85
-93 124 -133z m-903 57 c-8 -30 -21 -34 -15 -5 2 14 8 25 12 25 5 0 6 -9 3
-20z m47 -7 c0 -19 -3 -24 -10 -17 -6 6 -8 18 -4 27 9 24 14 21 14 -10z m100
-2 c0 7 3 10 6 6 3 -3 3 -11 -1 -17 -5 -8 -13 -5 -26 9 -10 11 -19 24 -19 28
1 4 10 -3 20 -16 11 -13 20 -17 20 -10z m42 4 c-2 -14 -6 -25 -8 -25 -2 0 -4
11 -4 25 0 14 4 25 9 25 4 0 6 -11 3 -25z m44 11 c3 -9 12 -12 22 -8 15 5 15
4 3 -12 -14 -16 -15 -16 -24 1 -6 10 -15 21 -21 25 -7 5 -7 8 2 8 7 0 15 -6
18 -14z m56 -11 c3 -13 2 -22 -2 -20 -11 7 -20 45 -10 45 4 0 10 -11 12 -25z
m40 13 c-17 -17 -15 -26 6 -31 13 -4 11 -5 -5 -6 -36 -2 -30 42 7 48 2 1 -1
-4 -8 -11z m64 -13 c0 -14 -7 -25 -14 -25 -9 0 -10 5 -3 19 6 10 7 21 4 25 -3
3 -2 6 4 6 6 0 10 -11 9 -25z m80 14 c3 -6 1 -16 -5 -22 -9 -9 -11 -8 -6 6 8
18 -2 22 -24 8 -7 -5 -10 -14 -7 -20 4 -6 3 -11 -3 -11 -19 0 -17 25 3 37 26
15 33 16 42 2z m58 -38 c-2 -3 -11 4 -19 15 -14 19 -14 19 -15 0 0 -11 -3 -17
-6 -13 -3 3 -3 16 1 28 l7 22 19 -24 c9 -13 16 -26 13 -28z m-448 19 c0 -11
-4 -20 -8 -20 -10 0 -11 24 -1 33 9 9 9 10 9 -13z m142 -59 c15 12 16 12 5 -2
-7 -9 -11 -18 -9 -20 2 -2 -6 -4 -18 -4 -14 0 -22 6 -22 17 0 13 4 14 13 6 9
-7 18 -7 31 3z m37 0 c3 -5 1 -12 -5 -16 -5 -3 -10 1 -10 9 0 18 6 21 15 7z
m48 -11 c-3 -11 -7 -20 -9 -20 -2 0 -4 9 -4 20 0 11 4 20 9 20 5 0 7 -9 4 -20z
m37 -5 c14 -19 14 -19 -2 -6 -10 7 -18 18 -18 24 0 6 1 8 3 6 1 -2 9 -13 17
-24z m-231 -7 c13 -21 13 -22 -1 -10 -13 10 -17 10 -21 0 -3 -7 -6 -3 -6 10
-1 12 2 22 7 22 4 0 13 -10 21 -22z m38 -10 c-3 -7 -5 -2 -5 12 0 14 2 19 5
13 2 -7 2 -19 0 -25z m234 9 c-10 -9 -11 -8 -5 6 3 10 9 15 12 12 3 -3 0 -11
-7 -18z m39 12 c0 -5 4 -8 8 -5 5 3 9 -1 9 -9 0 -7 -9 -13 -19 -12 -18 1 -26
37 -8 37 6 0 10 -5 10 -11z m-357 -19 c3 -11 1 -18 -4 -14 -5 3 -9 12 -9 20 0
20 7 17 13 -6z m-31 -4 c7 4 8 2 4 -5 -9 -13 -26 -5 -25 12 0 9 2 8 6 -1 2 -6
10 -9 15 -6z m-34 -13 c16 -16 16 -16 0 -11 -9 4 -19 2 -21 -5 -3 -7 -4 -2 -4
11 1 26 4 27 25 5z m489 -5 c-3 -8 -6 -5 -6 6 -1 11 2 17 5 13 3 -3 4 -12 1
-19z m-535 -15 c-3 -16 -7 -22 -10 -15 -4 13 4 42 11 42 2 0 2 -12 -1 -27z
m608 0 c0 -12 -3 -13 -13 -4 -8 6 -17 8 -20 4 -4 -3 -7 -1 -7 5 0 12 21 22 33
15 4 -2 7 -11 7 -20z m-636 -8 c-4 -8 -8 -15 -10 -15 -2 0 -4 7 -4 15 0 8 4
15 10 15 5 0 7 -7 4 -15z m686 0 c0 -8 -4 -15 -8 -15 -5 0 -9 7 -9 15 0 8 4
15 9 15 4 0 8 -7 8 -15z m-710 -16 c0 -5 -4 -9 -10 -9 -5 0 -10 7 -10 16 0 8
5 12 10 9 6 -3 10 -10 10 -16z m-43 -28 c-7 -2 -19 -9 -27 -15 -8 -6 -5 1 5
15 13 18 22 23 27 15 4 -6 2 -13 -5 -15z m812 7 c-1 -18 -2 -19 -6 -5 -4 14
-8 16 -19 6 -9 -7 -14 -8 -14 -1 0 10 15 19 33 21 4 1 6 -9 6 -21z m-988 -18
c10 -6 19 -15 19 -21 0 -6 -8 -5 -22 2 -12 6 -33 15 -47 20 l-26 7 28 1 c16 1
37 -4 48 -9z m1024 0 c-3 -5 -12 -10 -18 -10 -7 0 -6 4 3 10 19 12 23 12 15 0z
m205 -2 c0 -6 -3 -9 -6 -5 -4 3 -22 0 -40 -8 -19 -8 -34 -10 -34 -5 0 8 44 28
68 29 6 1 12 -4 12 -11z m-1113 -30 c-3 -8 -6 -5 -6 6 -1 11 2 17 5 13 3 -3 4
-12 1 -19z m-307 -17 c0 -15 -25 -78 -55 -140 -30 -62 -55 -122 -55 -134 0
-13 -7 -33 -16 -45 -9 -13 -13 -26 -9 -30 3 -4 11 1 17 11 9 17 11 17 34 2 25
-16 33 -8 12 14 -11 10 -9 11 5 5 11 -4 28 -28 39 -53 11 -25 30 -60 44 -78
29 -38 29 -41 7 -65 -23 -25 -37 -23 -74 14 -30 30 -31 31 -24 8 4 -14 18 -40
32 -58 20 -26 22 -36 13 -47 -7 -8 -16 -15 -21 -15 -13 0 -61 88 -63 115 0 14
-4 25 -8 25 -13 0 -9 -57 9 -121 14 -52 15 -62 2 -69 -24 -15 -37 10 -57 110
-18 86 -20 90 -20 45 -1 -27 3 -72 7 -98 7 -42 5 -50 -12 -62 -18 -12 -25 -11
-66 12 -72 40 -131 83 -132 96 -1 7 0 25 1 42 2 29 2 30 -18 12 -18 -16 -20
-16 -26 -2 -16 43 -3 63 97 153 33 30 93 137 112 201 6 20 4 23 -10 18 -9 -4
-25 -1 -35 6 -18 12 -17 15 18 43 52 42 89 64 152 90 77 33 100 31 100 -5z
m1617 13 c26 -9 74 -32 106 -51 51 -31 56 -37 45 -51 -11 -15 -11 -15 3 -5 12
10 19 10 33 0 16 -12 16 -14 2 -26 -9 -7 -23 -11 -32 -7 -19 7 -14 -14 26
-102 21 -45 50 -82 104 -135 65 -63 74 -76 69 -99 -5 -29 -17 -36 -28 -18 -13
20 -24 9 -19 -18 5 -24 0 -34 -31 -61 -21 -18 -62 -44 -91 -58 -51 -24 -56
-25 -73 -9 -15 14 -17 24 -10 59 4 23 8 62 7 87 l0 45 -10 -45 c-23 -104 -41
-151 -57 -148 -19 4 -19 23 4 107 11 42 13 67 7 73 -6 6 -7 22 -1 41 6 20 5
27 -1 21 -6 -6 -12 -32 -15 -59 -5 -46 -47 -135 -64 -135 -5 0 -14 6 -20 14
-9 11 -6 20 12 42 22 28 51 84 43 84 -2 0 -20 -16 -41 -37 l-36 -36 -27 26
-26 26 23 24 c12 14 34 48 49 78 16 29 34 55 42 57 12 4 13 2 3 -9 -19 -19
-16 -33 3 -15 18 18 30 20 39 6 3 -5 11 -10 17 -10 6 0 3 12 -6 26 -10 14 -16
35 -14 47 1 13 -10 44 -25 70 -45 77 -87 170 -87 195 0 26 13 27 77 6z m-1389
-22 c34 -22 26 -36 -9 -15 -39 23 -60 47 -33 36 10 -3 29 -13 42 -21z m1137
13 c-11 -8 -27 -20 -35 -28 -12 -12 -49 -28 -70 -32 -12 -2 -89 -55 -96 -67
-4 -6 8 -1 27 12 19 13 28 17 22 10 -10 -11 -9 -17 4 -32 9 -10 12 -18 6 -18
-5 0 -15 -12 -22 -26 -11 -24 -13 -25 -34 -12 -27 18 -72 30 -80 22 -4 -4 -1
-16 4 -27 10 -18 9 -19 -17 -14 -58 11 -129 35 -106 36 32 1 82 29 82 45 0 31
-109 49 -143 24 -20 -16 -13 -55 12 -62 9 -2 3 -3 -14 -2 -16 2 -42 -1 -57 -5
-37 -10 -35 -3 3 17 23 11 30 21 26 35 -3 11 0 19 8 19 19 0 35 24 26 39 -6 9
-18 11 -40 6 -19 -4 -31 -3 -31 4 0 6 -7 8 -15 4 -9 -3 -15 -2 -14 3 5 28 -3
33 -46 32 -29 -2 -41 -6 -35 -12 6 -6 4 -16 -7 -28 -15 -17 -15 -18 3 -18 15
0 16 -2 5 -9 -7 -5 -13 -20 -13 -34 l0 -26 -18 22 c-17 20 -17 23 -2 29 9 4
11 7 5 7 -7 1 -13 9 -14 19 0 13 -2 14 -6 2 -9 -23 -24 -30 -64 -30 -33 0
-103 -39 -71 -40 6 0 12 -6 12 -13 0 -17 62 -37 90 -30 14 4 20 0 20 -11 0
-10 -3 -15 -8 -12 -18 11 -92 16 -92 6 0 -5 16 -10 36 -10 20 0 33 -4 29 -10
-3 -6 1 -7 9 -4 13 5 65 -39 66 -56 0 -3 -19 -6 -41 -7 -23 0 -46 -6 -52 -12
-9 -9 1 -10 36 -7 31 3 47 1 47 -7 0 -8 3 -8 12 1 15 15 48 16 48 2 0 -5 -5
-10 -11 -10 -5 0 -7 -5 -3 -11 7 -12 -470 -8 -482 4 -4 4 0 21 9 39 11 22 13
37 6 50 -13 24 -18 23 -12 -3 4 -14 -3 -29 -22 -47 -26 -24 -27 -26 -9 -39 15
-11 9 -13 -53 -13 l-70 0 -16 43 c-24 66 -30 132 -16 195 7 31 12 60 11 65 -3
12 15 8 27 -7 7 -8 23 -17 36 -20 14 -4 25 -11 25 -16 0 -15 -8 -12 -49 12
l-36 21 22 -24 c13 -13 35 -24 50 -25 16 -1 31 -3 34 -3 4 -1 10 -13 14 -28
10 -40 25 -56 40 -43 9 7 16 5 26 -7 13 -16 12 -17 -3 -4 -27 21 -22 -4 8 -36
21 -23 23 -24 14 -5 -7 15 -7 22 0 22 5 0 10 -7 10 -15 0 -8 9 -19 20 -25 11
-6 20 -16 20 -22 0 -9 -3 -9 -12 0 -7 7 -17 12 -23 12 -11 -1 25 -30 37 -30
13 0 9 22 -9 42 -9 10 -11 18 -5 18 6 0 14 -4 17 -10 14 -23 27 -9 22 25 -3
21 -2 33 4 30 5 -4 9 -1 9 5 0 7 -6 10 -14 7 -7 -3 -19 0 -26 6 -7 7 -6 1 3
-13 10 -13 17 -31 16 -40 0 -10 -2 -11 -6 -2 -2 6 -10 9 -15 6 -7 -4 -8 -2 -4
4 4 7 3 12 -3 12 -6 0 -7 7 -4 17 4 10 2 14 -4 10 -5 -3 -10 0 -10 8 0 8 3 14
6 13 19 -2 22 4 11 17 -7 8 -8 15 -2 15 5 0 15 -7 22 -15 10 -12 10 -15 0 -15
-8 0 -11 -3 -7 -6 10 -10 26 6 21 20 -3 7 -30 26 -60 41 -33 17 -54 34 -54 44
0 9 -6 23 -12 30 -11 12 -10 13 6 7 10 -3 227 -6 482 -6 361 0 464 -3 465 -13
0 -9 2 -9 6 1 4 10 8 10 19 1 11 -9 14 -9 14 0 0 8 8 10 19 6 11 -3 22 -1 26
5 3 5 11 10 18 10 8 0 8 -3 -1 -12 -7 -7 -12 -17 -12 -22 0 -7 3 -8 8 -1 6 9
70 43 82 44 3 0 -4 -6 -15 -14z m85 -1 c0 -8 -4 -12 -10 -9 -5 3 -10 10 -10
16 0 5 5 9 10 9 6 0 10 -7 10 -16z m-1294 -15 c19 -11 34 -22 34 -24 0 -9 -74
23 -78 33 -5 17 6 15 44 -9z m1272 0 c-2 -6 -7 -10 -11 -10 -3 0 -20 -4 -37
-9 -37 -11 -38 -5 -2 14 32 18 55 20 50 5z m4 -31 c-21 -21 -98 -35 -86 -16 3
5 13 6 22 4 10 -3 31 3 47 13 40 26 44 25 17 -1z m-1227 -18 c3 -5 1 -10 -4
-10 -6 0 -11 5 -11 10 0 6 2 10 4 10 3 0 8 -4 11 -10z m1249 -57 c8 -75 -13
-176 -40 -203 -14 -13 -15 -12 -9 13 5 17 2 33 -5 42 -7 9 -10 19 -6 22 4 4
11 1 16 -7 7 -11 10 -7 10 16 0 16 5 35 10 40 6 6 7 24 4 42 -7 32 -23 40 -92
41 -19 0 -21 -3 -12 -14 9 -11 -1 -27 -53 -81 -59 -60 -66 -64 -72 -45 -3 12
-11 19 -16 15 -6 -3 -5 -12 2 -22 12 -15 11 -15 -3 -2 -9 8 -19 26 -23 40 -4
18 -4 21 4 11 8 -12 12 -13 25 -1 14 11 16 10 10 -6 -5 -13 5 -8 27 15 22 22
30 35 21 38 -9 3 -6 13 9 34 12 17 23 28 26 25 3 -3 -2 -12 -11 -21 -19 -19
-22 -40 -3 -28 6 4 4 -5 -6 -21 -10 -15 -16 -30 -14 -33 3 -2 13 7 22 21 10
14 23 26 30 26 7 0 16 7 19 16 4 12 2 15 -9 10 -13 -5 -14 -2 -4 15 9 17 8 23
-2 30 -7 4 -10 11 -6 15 4 4 13 -1 21 -11 9 -13 15 -15 20 -6 4 6 15 10 24 7
10 -3 28 3 42 14 14 11 28 20 31 20 4 0 10 -30 13 -67z m-590 36 c-3 -5 -22
-9 -42 -9 -26 0 -33 3 -22 9 8 6 18 7 22 5 4 -3 8 -1 8 4 0 6 9 8 20 5 11 -3
17 -9 14 -14z m-544 -11 c0 -6 -6 -5 -15 2 -8 7 -15 14 -15 16 0 2 7 1 15 -2
8 -4 15 -11 15 -16z m930 7 c-7 -9 -15 -13 -19 -10 -3 3 1 10 9 15 21 14 24
12 10 -5z m-970 -42 l31 -48 -36 40 c-29 32 -38 37 -45 25 -11 -17 -13 -9 -4
14 10 26 21 19 54 -31z m-35 -13 c3 -5 1 -10 -4 -10 -6 0 -11 5 -11 10 0 6 2
10 4 10 3 0 8 -4 11 -10z m373 -7 c-10 -2 -26 -2 -35 0 -10 3 -2 5 17 5 19 0
27 -2 18 -5z m355 0 c-13 -2 -33 -2 -45 0 -13 2 -3 4 22 4 25 0 35 -2 23 -4z
m-259 -22 c3 -5 0 -11 -8 -14 -15 -6 -26 1 -26 15 0 11 27 10 34 -1z m70 -16
c-4 -8 -10 -15 -15 -15 -5 0 -9 7 -9 15 0 8 7 15 15 15 9 0 12 -6 9 -15z m136
-11 c0 -2 -12 -4 -26 -4 -14 0 -23 4 -20 9 6 8 46 4 46 -5z m220 6 c0 -5 -4
-10 -9 -10 -6 0 -13 5 -16 10 -3 6 1 10 9 10 9 0 16 -4 16 -10z m-1204 -66
c-3 -8 -10 -14 -16 -14 -14 0 -13 37 2 63 13 22 13 22 16 -6 2 -16 1 -35 -2
-43z m894 43 c8 -3 3 -5 -11 -4 -18 1 -25 6 -21 15 2 7 8 9 11 4 3 -5 13 -12
21 -15z m800 -19 c0 -9 -4 -20 -10 -23 -6 -4 -10 9 -10 32 0 28 3 34 10 23 5
-8 10 -23 10 -32z m-600 21 c13 -9 13 -10 -1 -6 -9 3 -36 -1 -60 -10 -81 -28
-138 -40 -151 -32 -9 6 -7 9 7 9 11 0 28 9 37 19 13 15 25 18 55 14 21 -2 49
0 63 6 32 13 32 13 50 0z m-320 -7 c0 -5 -7 -9 -15 -9 -8 0 -15 4 -15 9 0 4 7
8 15 8 8 0 15 -4 15 -8z m65 -2 c3 -5 -1 -10 -9 -10 -9 0 -16 5 -16 10 0 6 4
10 9 10 6 0 13 -4 16 -10z m604 -72 c-1 -31 -1 -31 -8 -8 -5 14 -6 28 -4 33 9
15 13 6 12 -25z m-525 -18 c21 -8 32 -7 42 1 9 7 14 8 14 1 0 -6 8 -13 18 -16
9 -2 -19 -4 -64 -3 l-81 2 16 21 c9 12 18 18 21 14 3 -5 18 -14 34 -20z m273
-6 c-3 -3 -12 -4 -19 -1 -8 3 -5 6 6 6 11 1 17 -2 13 -5z m-134 -11 c-7 -2
-19 -2 -25 0 -7 3 -2 5 12 5 14 0 19 -2 13 -5z m-388 -53 c10 -11 25 -20 33
-20 9 0 13 7 9 20 -3 11 -1 20 4 20 14 0 11 -36 -4 -49 -10 -8 -19 -7 -33 4
-25 19 -34 19 -34 0 0 -8 -4 -15 -10 -15 -6 0 -6 9 0 24 5 13 6 27 3 30 -4 3
-2 6 4 6 5 0 18 -9 28 -20z m110 1 c-4 -14 0 -21 12 -24 11 -3 7 -5 -11 -6
-22 -1 -27 2 -22 16 4 9 1 20 -6 25 -9 5 -6 8 10 8 18 0 22 -4 17 -19z m80 -1
c0 -7 -5 -15 -10 -17 -6 -2 -11 6 -11 17 0 11 5 19 11 17 5 -2 10 -10 10 -17z
m47 8 c-18 -18 -15 -28 11 -29 18 -1 19 -2 3 -6 -10 -3 -23 0 -28 5 -13 13 -3
42 14 42 9 0 9 -3 0 -12z m64 -15 c-4 -9 -1 -20 6 -25 7 -4 9 -8 3 -8 -5 0
-16 4 -24 9 -12 8 -12 12 -2 25 17 21 25 20 17 -1z m74 7 c-12 -8 -12 -10 4
-16 11 -4 21 -2 26 7 5 7 12 10 17 6 4 -5 1 -12 -7 -18 -13 -8 -13 -10 0 -18
8 -6 12 -13 9 -16 -4 -3 -17 3 -30 14 -22 17 -24 17 -37 2 -12 -14 -13 -13 -8
11 4 16 1 28 -7 31 -6 3 2 6 18 6 22 1 26 -2 15 -9z m-430 -15 c0 -8 -10 -20
-22 -26 -21 -11 -22 -11 -9 5 20 24 7 30 -28 15 -37 -16 -39 -26 -8 -32 16 -3
13 -5 -10 -6 -18 0 -33 4 -33 9 0 15 61 50 88 50 13 0 22 -6 22 -15z m-140
-29 c-6 -17 -5 -26 3 -29 8 -2 8 -5 0 -10 -21 -13 -34 18 -17 41 20 29 26 28
14 -2z m723 -13 c7 -37 0 -42 -14 -9 -7 14 -16 26 -21 26 -5 0 -7 -3 -5 -7 3
-5 -6 -9 -19 -9 -30 -2 -31 4 -1 16 39 16 54 11 60 -17z m-767 -9 c-3 -9 -6
-22 -6 -30 0 -8 -4 -14 -8 -14 -4 0 -8 14 -7 30 0 18 5 30 14 30 8 0 11 -6 7
-16z m820 7 c-3 -5 1 -14 9 -21 20 -17 19 -30 -2 -30 -14 0 -15 2 -5 9 10 6
10 10 -3 21 -17 14 -20 30 -4 30 5 0 8 -4 5 -9z m-722 -36 c-4 -8 -1 -22 6
-30 9 -11 9 -15 1 -15 -6 0 -14 7 -17 15 -6 15 1 45 10 45 3 0 3 -7 0 -15z
m103 -32 c-3 -10 -5 -2 -5 17 0 19 2 27 5 18 2 -10 2 -26 0 -35z m70 0 c-3
-10 -5 -2 -5 17 0 19 2 27 5 18 2 -10 2 -26 0 -35z m178 17 c0 -16 -3 -30 -7
-30 -5 0 -8 14 -8 30 0 17 4 30 8 30 4 0 8 -13 7 -30z m-298 -12 c-3 -8 -6 -5
-6 6 -1 11 2 17 5 13 3 -3 4 -12 1 -19z m31 -3 c-3 -3 -9 2 -12 12 -6 14 -5
15 5 6 7 -7 10 -15 7 -18z m206 9 c10 -25 -1 -29 -14 -5 -6 12 -7 21 -1 21 5
0 12 -7 15 -16z m126 -16 c0 -5 -7 -3 -15 6 -8 8 -15 18 -15 22 0 3 7 1 15 -6
8 -7 15 -17 15 -22z m17 -15 c-3 -10 -5 -2 -5 17 0 19 2 27 5 18 2 -10 2 -26
0 -35z m43 27 c13 -11 18 -20 12 -20 -10 0 -42 27 -42 36 0 8 7 4 30 -16z m43
0 c-3 -11 -7 -20 -9 -20 -2 0 -4 9 -4 20 0 11 4 20 9 20 5 0 7 -9 4 -20z m44
-12 c-3 -7 -5 -2 -5 12 0 14 2 19 5 13 2 -7 2 -19 0 -25z m48 22 c3 -5 0 -7
-9 -4 -8 3 -16 -2 -19 -13 -4 -14 -5 -14 -6 5 -1 22 22 31 34 12z m29 -14 c-3
-9 -10 -16 -15 -16 -5 0 -4 9 3 20 14 22 21 20 12 -4z m49 4 c4 -15 0 -20 -14
-20 -10 0 -19 5 -19 11 0 5 5 7 10 4 6 -3 10 1 10 9 0 22 7 20 13 -4z m-458
-19 c-6 -5 -25 10 -25 20 0 5 6 4 14 -3 8 -7 12 -15 11 -17z m-108 -53 c-3 -8
-6 -5 -6 6 -1 11 2 17 5 13 3 -3 4 -12 1 -19z m310 7 c0 -8 -4 -15 -9 -15 -10
0 -11 14 -1 23 9 10 10 9 10 -8z m57 7 c2 -4 -2 -16 -10 -27 -12 -16 -14 -17
-14 -2 0 9 6 17 13 17 8 0 7 4 -3 10 -9 6 -10 10 -3 10 6 0 14 -3 17 -8z m43
1 c-4 -3 -2 -12 4 -20 8 -9 8 -13 1 -13 -6 0 -14 5 -17 10 -6 10 2 30 12 30 4
0 3 -3 0 -7z m-444 -23 c3 -11 1 -20 -4 -20 -5 0 -9 9 -9 20 0 11 2 20 4 20 2
0 6 -9 9 -20z m218 -7 c13 -16 12 -17 -3 -4 -14 11 -18 11 -18 1 0 -8 -3 -11
-6 -7 -5 5 3 27 10 27 2 0 10 -8 17 -17z m66 0 c0 -9 -4 -10 -14 -2 -7 6 -13
12 -13 14 0 1 6 2 13 2 8 0 14 -6 14 -14z"/>
<path d="M153 1487 c4 -13 97 -51 105 -43 3 3 -8 10 -24 16 -16 6 -42 18 -57
25 -21 10 -27 11 -24 2z"/>
<path d="M164 1426 c22 -18 32 -19 61 -6 18 8 18 9 -5 9 -14 1 -36 4 -50 7
-24 5 -24 5 -6 -10z"/>
<path d="M395 1250 c10 -11 20 -20 23 -20 3 0 -3 9 -13 20 -10 11 -20 20 -23
20 -3 0 3 -9 13 -20z"/>
<path d="M2700 1465 c-14 -8 -33 -14 -42 -15 -10 0 -18 -5 -18 -11 0 -15 83
11 95 30 9 15 -5 13 -35 -4z"/>
<path d="M2685 1421 c-34 -5 -37 -7 -16 -13 22 -6 71 5 71 17 0 3 -3 4 -7 4
-5 -1 -26 -5 -48 -8z"/>
<path d="M2601 1391 c-12 -16 -21 -34 -21 -39 0 -6 -26 -39 -57 -74 -56 -62
-56 -62 -7 -15 27 26 64 72 81 102 35 60 36 72 4 26z"/>
<path d="M2260 1399 c0 -5 5 -7 10 -4 6 3 10 8 10 11 0 2 -4 4 -10 4 -5 0 -10
-5 -10 -11z"/>
<path d="M366 894 c-10 -14 -16 -28 -13 -30 2 -3 12 7 21 22 10 14 16 28 13
30 -2 3 -12 -7 -21 -22z"/>
<path d="M375 863 c-39 -82 -58 -129 -49 -120 13 13 90 177 83 177 -4 0 -19
-26 -34 -57z"/>
<path d="M391 769 c-17 -45 -29 -84 -27 -87 5 -5 25 40 45 100 7 21 17 40 22
43 12 8 12 25 0 25 -5 0 -23 -37 -40 -81z"/>
<path d="M467 770 c-4 -14 -6 -38 -6 -55 1 -27 2 -26 10 10 11 45 7 85 -4 45z"/>
<path d="M2500 905 c30 -52 34 -55 25 -25 -7 22 -6 23 9 11 22 -19 20 -5 -4
26 -11 14 -20 20 -20 13 0 -10 -4 -9 -17 1 -12 10 -10 3 7 -26z"/>
<path d="M2462 863 c8 -16 39 -84 53 -120 8 -20 18 -34 20 -31 7 6 -61 158
-70 158 -4 0 -5 -3 -3 -7z"/>
<path d="M2541 825 c0 -5 6 -21 14 -35 8 -14 14 -20 14 -15 0 6 -6 21 -14 35
-8 14 -14 21 -14 15z"/>
<path d="M2427 765 c3 -27 7 -52 9 -54 7 -8 2 54 -6 79 -6 17 -7 9 -3 -25z"/>
<path d="M985 1239 c3 -4 23 -7 46 -7 23 -1 39 1 37 3 -8 8 -87 12 -83 4z"/>
<path d="M1543 1233 c9 -2 25 -2 35 0 9 3 1 5 -18 5 -19 0 -27 -2 -17 -5z"/>
<path d="M1774 1183 c10 -11 76 -14 76 -4 0 5 -18 9 -41 9 -23 1 -38 -2 -35
-5z"/>
<path d="M1172 1173 c-28 -4 -32 -8 -27 -24 5 -14 1 -25 -11 -34 -16 -11 -11
-13 39 -16 31 -2 57 -1 57 4 0 4 -7 7 -15 7 -18 0 -19 9 -5 44 5 14 6 25 2 24
-4 0 -22 -3 -40 -5z"/>
<path d="M815 1114 c8 -20 29 -53 46 -75 l31 -39 -34 -15 c-18 -8 -25 -14 -16
-15 22 0 68 21 68 31 0 5 -15 25 -34 44 -19 19 -40 51 -46 70 -6 19 -16 35
-21 35 -5 0 -3 -16 6 -36z"/>
<path d="M1854 1129 c-10 -13 -13 -19 -5 -14 11 6 13 4 7 -11 -6 -17 -4 -16
16 3 15 16 19 26 12 33 -7 7 -16 4 -30 -11z"/>
<path d="M1320 1019 c-22 -6 -20 -7 13 -8 38 -1 47 3 25 11 -7 3 -24 1 -38 -3z"/>
<path d="M1090 1009 c0 -7 10 -9 25 -5 15 4 25 2 25 -4 0 -6 5 -8 11 -5 15 10
4 17 -31 21 -17 2 -30 -1 -30 -7z"/>
<path d="M1188 1003 c7 -3 16 -2 19 1 4 3 -2 6 -13 5 -11 0 -14 -3 -6 -6z"/>
<path d="M1237 979 c-10 -6 -27 -9 -38 -6 -12 3 -19 0 -19 -9 0 -10 13 -14 44
-14 39 0 44 2 39 20 -3 11 -6 20 -7 20 0 0 -9 -5 -19 -11z"/>
<path d="M2080 1170 c0 -5 7 -7 15 -4 8 4 15 8 15 10 0 2 -7 4 -15 4 -8 0 -15
-4 -15 -10z"/>
<path d="M1905 1040 c-10 -11 -15 -20 -11 -20 11 0 39 30 34 36 -3 2 -13 -5
-23 -16z"/>
</g>
</svg>
