<?xml version="1.0"?>
<svg xmlns="http://www.w3.org/2000/svg" id="filled_outline" data-name="filled outline" viewBox="0 0 512 512" width="512" height="512"><rect x="368" y="24" width="32" height="432" style="fill:#ea964b"/><polygon points="312 488 336 456 416 456 440 488 312 488" style="fill:#db8638"/><path d="M216,264l73.5,73.5a63.96431,63.96431,0,0,1,17.87,34.73L320,448l-40,16-16-80-80-64-26.49,52.98a64.08944,64.08944,0,0,1-14.72,19.21L80,448,32,464l72-112,20.43994-102.22Z" style="fill:#718799"/><path d="M344,184v40l-21.18994,21.18994a64.20986,64.20986,0,0,1-83.93006,5.97l-1.70007-1.28L216,264H160l-35.56006-14.22.81006-4.03a63.8716,63.8716,0,0,1,11-25.09009L180.02,160.47A39.99843,39.99843,0,0,1,212.37,144h75.05993a39.99389,39.99389,0,0,1,28.29,11.72Z" style="fill:#548aff"/><path d="M344,224l23.15542-11.57771A16,16,0,0,0,376,198.11146V168H336l-16,24Z" style="fill:#ffceb6"/><polygon points="32 464 32 488 112 488 112 472 80 448 32 464" style="fill:#d1e4ff"/><path d="M388,272H368a24,24,0,0,1-24-24V232h16v-9.52787A6.47213,6.47213,0,0,1,366.47213,216h0a6.4722,6.4722,0,0,1,2.89442.68328L384,224h24v28A20,20,0,0,1,388,272Z" style="fill:#ffceb6"/><polygon points="280 464 280 488 360 488 360 472 320 448 280 464" style="fill:#d1e4ff"/><polygon points="400 24 480 72 400 120 400 24" style="fill:#ef5e3b"/><path d="M256,160h0a24,24,0,0,1-24-24v-8l16-16h32v24A24,24,0,0,1,256,160Z" style="fill:#ffceb6"/><path d="M280,112l3.02944-3.02944a16.97054,16.97054,0,0,0,4.97056-12v0A16.97054,16.97054,0,0,0,271.02945,80H256a24,24,0,0,0-24,24v24l16-16Z" style="fill:#c47220"/><path d="M484.11621,65.13965l-80-48-.00439.00732A7.95124,7.95124,0,0,0,400,16H368a8.00008,8.00008,0,0,0-8,8V160H336a7.99378,7.99378,0,0,0-3.75073.93555l-10.87622-10.876a47.6683,47.6683,0,0,0-33.37342-14.04565L288,136V115.314l.686-.686A24.97075,24.97075,0,0,0,271.0293,72H256a32.03635,32.03635,0,0,0-32,32v32H212.36914a48.1442,48.1442,0,0,0-38.81934,19.76758L129.77832,215.9541a72.498,72.498,0,0,0-12.37305,28.22754L96.45215,348.94727,25.27051,459.67383A7.99852,7.99852,0,0,0,24,464v24a8.00008,8.00008,0,0,0,8,8h80a8.00008,8.00008,0,0,0,8-8V472a8.0009,8.0009,0,0,0-3.2002-6.40039l-24.167-18.125L148.103,398.168a71.68552,71.68552,0,0,0,16.56445-21.61426l22.0625-44.125,69.99707,55.998L272,464.792V488a8.00008,8.00008,0,0,0,8,8H448a7.99978,7.99978,0,0,0,6.3999-12.7998l-24-32A7.99927,7.99927,0,0,0,424,448H408V271.56934A27.90226,27.90226,0,0,0,416,252V224a8.00008,8.00008,0,0,0-8-8V124.53l76.11621-45.66968a8.001,8.001,0,0,0,0-13.7207ZM400,232v20a12.01343,12.01343,0,0,1-12,12H368a16.01833,16.01833,0,0,1-16-16v-8h8a8.00008,8.00008,0,0,0,8-8v-7.05566l12.42236,6.21093A7.99737,7.99737,0,0,0,384,232ZM344,448a7.99308,7.99308,0,0,0-5.2146,1.94189L327.28369,443.041l-12.021-72.126a71.60355,71.60355,0,0,0-20.1084-39.0752l-66.59717-66.59668,8.43555-5.62353A72.71028,72.71028,0,0,0,277.40332,272a71.734,71.734,0,0,0,51.06006-21.14941L336,243.314V248a32.05745,32.05745,0,0,0,24,30.9873V448Zm24-272v22.11133a7.95612,7.95612,0,0,1-4.42236,7.15527l-17.18384,8.59229L329.7959,191.728,340.28125,176H368Zm-80.56836-24a31.78649,31.78649,0,0,1,22.62744,9.37305l12.44666,12.44677-8.473,12.70948-34.10253,27.28125L264,201.42041V179.31372l10.34326,10.34351,11.31348-11.31446L271.371,164.05713A32.227,32.227,0,0,0,283.69482,152ZM256,152a16.01833,16.01833,0,0,1-16-16v-4.68652L251.31348,120H272v16A16.01833,16.01833,0,0,1,256,152Zm-8,36.97607-5.43506-4.227L248,179.31372ZM256,88h15.0293a8.97038,8.97038,0,0,1,6.34326,15.31348L276.686,104H248a8.00035,8.00035,0,0,0-5.65674,2.34277L240,108.686V104A16.01833,16.01833,0,0,1,256,88Zm-69.51074,77.17773A32.09881,32.09881,0,0,1,212.36914,152h15.936A32.227,32.227,0,0,0,240.629,164.05713l-10.79236,10.79224-16.925-13.16382-9.82324,12.6289,72,56a7.99856,7.99856,0,0,0,9.90918-.06738l33.55493-26.844L333.43713,223.249,317.1499,239.53711A55.84207,55.84207,0,0,1,277.40332,256a56.55763,56.55763,0,0,1-33.72607-11.24219l-46.87745-35.1582-9.5996,12.80078,36.13024,27.09815L213.57812,256H161.54053l-27.88037-11.1521a56.43115,56.43115,0,0,1,9.05761-19.48364ZM104,476v4H40V469.7666L78.55347,456.915Zm167.84473-93.56934a7.99965,7.99965,0,0,0-2.84717-4.67773l-80-64a8.0006,8.0006,0,0,0-12.15283,2.66895l-26.4878,52.97558A55.74929,55.74929,0,0,1,137.47314,386.209L75.9126,440.9292l-24.90845,8.30322,59.72534-92.90625a8.013,8.013,0,0,0,1.11524-2.75683l18.55859-92.792,26.62549,10.65039A8.00164,8.00164,0,0,0,160,272h52.686l71.15429,71.15332a55.69293,55.69293,0,0,1,15.64014,30.39258l11.56982,69.418-25.09155,10.03662ZM352,480H288V469.416l31.2865-12.51465L352,476.5293Zm80,0H368v-8a8.00091,8.00091,0,0,0-3.88428-6.86035L362.21631,464H420Zm-56-32V280h12a28.14607,28.14607,0,0,0,4-.29V448Zm9.88867-232-6.76037-3.38013A23.89913,23.89913,0,0,0,384,198.11133V168a8.00008,8.00008,0,0,0-8-8V32h16V216ZM408,105.87012V38.12988L464.45068,72Z"/></svg>
