<svg id="Layer_1" height="512" viewBox="0 0 512 512" width="512" xmlns="http://www.w3.org/2000/svg" data-name="Layer 1"><path d="m489.97 120.14h-478.75v297.68a40 40 0 0 0 40 40h400a40 40 0 0 0 40-40v-297.68z" fill="#f5fcff"/><path d="m451.22 54.18h-400a40 40 0 0 0 -40 40v25.96h480v-25.96a40 40 0 0 0 -40-40z" fill="#d4e1f4"/><path d="m169.4 54.18v38.69a27.271 27.271 0 0 1 -27.27 27.27h130.56a27.271 27.271 0 0 0 27.27-27.27v-38.69z" fill="#b9c8db"/><path d="m491.22 165.01a17.243 17.243 0 0 0 -7.85-1.87h-193.2a17.419 17.419 0 0 0 -17.42 17.41v79.73a17.412 17.412 0 0 0 17.42 17.41h19.98v39.95l27.35-39.95h145.87a17.409 17.409 0 0 0 17.41-17.41v-79.73a17.408 17.408 0 0 0 -9.56-15.54z" fill="#4689d3"/><path d="m237.81 200.19 2.66 6.67a76.115 76.115 0 0 1 .15 55.9 8.241 8.241 0 0 0 -2.35-.34h-2.2v-14.76a26.153 26.153 0 0 0 -5.15-16.31c-3.26-4.35-7.91-7.75-13.44-10.66-2.5 9.84-13.86 13.43-27.48 13.43-12.57 0-23.2-2.48-26.74-11.17l-.06-.15c-9.12 6.28-15.09 12.95-15.09 24.86v14.76h-2.2a8.094 8.094 0 0 0 -3.41.74l-2.68-6.74a57.846 57.846 0 0 1 0-42.83l.41-1.05a9.03 9.03 0 0 1 8.39-5.68 10.891 10.891 0 0 0 10.87-10.88 10.892 10.892 0 0 1 8.38-10.58 10.356 10.356 0 0 1 3.64-.14c7.81.98 53.14 6.28 68.96-.15v5.55a18.217 18.217 0 0 1 -2.66 9.52z" fill="#6d7486"/><path d="m309.24 379.05a46 46 0 0 0 -17.256-22.23 47.836 47.836 0 0 0 -12.172-6.045l-58.812-19.775h-60l-58.6 19.745a46.961 46.961 0 0 0 -11.842 5.932 45.6 45.6 0 0 0 -18.276 25.677 32.168 32.168 0 0 0 -1.282 8.526v67.12h241v-67.12c-1-4.09-1.42-8.06-2.76-11.83z" fill="#f58387"/><path d="m220.83 317.27a44.431 44.431 0 0 1 -59.83-1.985v36.595a51.733 51.733 0 0 0 59.635.04l.365-.04v-34.51z" fill="#efc597"/><path d="m106.31 457.73v.09h-35.66v-66.94a47.673 47.673 0 0 1 1.52-8.55 46.022 46.022 0 0 1 18.51-25.7l.11.16a61.7 61.7 0 0 1 15.52 40.93z" fill="#c6636a"/><path d="m161.47 457.73v.09h-.07l-32.55-60.2 13.88-11.62-10.72-15.82 29.46-33.79v15.49z" fill="#c6636a"/><path d="m220.87 457.75-.04.07h-59.36v-105.94a51.238 51.238 0 0 0 59.32.04l.05-.04v105.85z" fill="#a4bdc1"/><path d="m253.38 397.62-32.51 60.13-.03-.02v-105.85-15.58l29.38 33.88-10.72 15.82z" fill="#c6636a"/><path d="m311.58 457.73v.09h-35.19v-60.1a61.72 61.72 0 0 1 15.49-40.9 45.8 45.8 0 0 1 17.15 22.23 46.91 46.91 0 0 1 2.55 11.83z" fill="#c6636a"/><path d="m240.62 262.76a8.245 8.245 0 0 1 -2.35 16.15h-2.2v5a43.98 43.98 0 0 1 -74.6 31.57c-.16-.15-.32-.31-.48-.47a43.832 43.832 0 0 1 -12.88-31.1v-5h-2.2a8.238 8.238 0 0 1 -5.83-14.07 8.239 8.239 0 0 1 5.83-2.42h2.2v-14.76c0-11.91 5.97-18.58 15.09-24.86l.06.15c3.54 8.69 14.17 11.17 26.74 11.17 13.62 0 24.98-3.59 27.48-13.43 5.53 2.91 10.18 6.31 13.44 10.66a26.153 26.153 0 0 1 5.15 16.31v14.76h2.2a8.241 8.241 0 0 1 2.35.34z" fill="#ffd8b7"/><path d="m41.22 417.82v-297.68h-30v297.68a40 40 0 0 0 40 40h30a40 40 0 0 1 -40-40z" fill="#d8e1e5"/><path d="m81.22 54.18h-30a40 40 0 0 0 -40 40v25.96h30v-25.96a40 40 0 0 1 40-40z" fill="#bdcbdb"/><path d="m302.75 260.28v-79.73a17.419 17.419 0 0 1 17.42-17.41h-30a17.419 17.419 0 0 0 -17.42 17.41v79.73a17.412 17.412 0 0 0 17.42 17.41h19.98v39.95l27.35-39.95h-17.33a17.412 17.412 0 0 1 -17.42-17.41z" fill="#69b2f4"/><g fill="#95a5b5"><path d="m57.581 95.343a8.182 8.182 0 1 1 8.182-8.182 8.191 8.191 0 0 1 -8.182 8.182z"/><path d="m90.309 95.343a8.182 8.182 0 1 1 8.181-8.182 8.192 8.192 0 0 1 -8.181 8.182z"/><path d="m123.035 95.343a8.182 8.182 0 1 1 8.183-8.182 8.19 8.19 0 0 1 -8.183 8.182z"/><path d="m202.323 95.343a8.182 8.182 0 1 1 8.182-8.182 8.191 8.191 0 0 1 -8.182 8.182z"/><path d="m235.05 95.343a8.182 8.182 0 1 1 8.182-8.182 8.191 8.191 0 0 1 -8.182 8.182z"/><path d="m267.777 95.343a8.182 8.182 0 1 1 8.182-8.182 8.191 8.191 0 0 1 -8.182 8.182z"/></g><path d="m316.447 243.729-13.681-24.914v24.485c0 2.305-2.809 3.456-5.617 3.456s-5.616-1.151-5.616-3.456v-45.727c0-2.376 2.809-3.456 5.616-3.456 4.033 0 5.544.36 8.281 5.616l11.666 22.25v-24.483c0-2.376 2.807-3.384 5.615-3.384s5.617 1.008 5.617 3.384v45.8c0 2.305-2.808 3.456-5.617 3.456-2.592-.003-4.897-.506-6.264-3.027z" fill="#d4e1f4"/><path d="m350.213 216.079h10.8c2.16 0 3.384 2.088 3.384 4.392 0 1.945-1.007 4.249-3.384 4.249h-10.8v12.24h19.3c2.16 0 3.384 2.3 3.384 4.969 0 2.3-1.008 4.824-3.384 4.824h-25.636c-2.449 0-4.9-1.151-4.9-3.456v-45.724c0-2.3 2.448-3.456 4.9-3.456h25.634c2.376 0 3.384 2.52 3.384 4.824 0 2.664-1.224 4.969-3.384 4.969h-19.3z" fill="#d4e1f4"/><path d="m428.336 243.441c-.865 2.52-4.106 3.745-7.418 3.745-3.24 0-6.695-1.225-7.272-3.745l-3.746-17.066-3.745 17.066c-.575 2.52-4.032 3.745-7.272 3.745-3.313 0-6.625-1.225-7.416-3.745l-14.33-43.923a3.172 3.172 0 0 1 -.145-.937c0-2.448 4.033-4.464 7.274-4.464 1.728 0 3.168.576 3.6 2.088l10.945 36.939 5.689-24.338c.433-1.944 2.952-2.952 5.4-2.952s4.968 1.008 5.4 2.952l5.687 24.338 10.946-36.939c.431-1.512 1.872-2.088 3.6-2.088 3.241 0 7.274 2.016 7.274 4.464a3.205 3.205 0 0 1 -.145.937z" fill="#d4e1f4"/><path d="m471.389 232.64c0-8.713-22.827-7.2-22.827-24.05 0-10.8 9.434-14.9 18.434-14.9 3.816 0 14.33.72 14.33 6.336 0 1.944-1.3 5.905-4.465 5.905-2.591 0-3.961-2.737-9.865-2.737-5.112 0-7.2 2.089-7.2 4.321 0 7.2 22.826 5.833 22.826 23.978 0 10.369-7.56 15.986-18 15.986-9.432 0-17.353-4.609-17.353-9.361 0-2.448 2.16-6.049 4.9-6.049 3.384 0 5.544 5.329 12.241 5.329 3.307-.005 6.979-1.298 6.979-4.758z" fill="#d4e1f4"/><path d="m50.3 179.833a6 6 0 0 1 -6-6v-6.295a6 6 0 0 1 12 0v6.295a6 6 0 0 1 -6 6z" fill="#bec9cc"/><path d="m50.3 274.833a6 6 0 0 1 -6-6v-76a6 6 0 0 1 12 0v76a6 6 0 0 1 -6 6z" fill="#bec9cc"/></svg>