<svg id="Capa_1" enable-background="new 0 0 512.009 512.009" height="512" viewBox="0 0 512.009 512.009" width="512" xmlns="http://www.w3.org/2000/svg" xmlns:xlink="http://www.w3.org/1999/xlink"><linearGradient id="SVGID_1_" gradientUnits="userSpaceOnUse" x1="256.005" x2="256.005" y1="451.005" y2="121.005"><stop offset="0" stop-color="#a93aff"/><stop offset="1" stop-color="#ff81ff"/></linearGradient><linearGradient id="SVGID_2_" gradientUnits="userSpaceOnUse" x1="256.005" x2="256.005" y1="301.005" y2="61.005"><stop offset="0" stop-color="#ffbef9"/><stop offset="1" stop-color="#fff1ff"/></linearGradient><g><g><g><path d="m509.866 278.285c-3.838-6.416-97.182-157.28-253.861-157.28s-250.024 150.864-253.862 157.28c-2.842 4.746-2.842 10.693 0 15.439 3.838 6.416 97.182 157.28 253.861 157.28s250.023-150.864 253.861-157.28c2.843-4.746 2.843-10.693.001-15.439z" fill="url(#SVGID_1_)"/></g></g><g><g><path d="m256.005 121.005c-90.901 0-165 74.099-165 165 0 90.899 74.099 165 165 165s165-74.101 165-165c0-90.901-74.099-165-165-165zm90 180h-16.5c-2.1 9.6-5.7 18.3-11.1 26.4l11.699 11.698c6 5.7 6 15.3 0 21-4.89 5.438-14.46 6.543-20.999 0l-11.7-11.701c-8.101 5.402-16.8 9.002-26.4 11.102v16.5c0 8.399-6.599 15-15 15s-15-6.601-15-15v-16.5c-9.6-2.1-18.3-5.7-26.4-11.102l-11.7 11.701c-6.485 6.489-16.058 5.493-20.999 0-6-5.7-6-15.3 0-21l11.699-11.698c-5.4-8.101-9-16.8-11.1-26.4h-16.5c-8.401 0-15-6.601-15-15 0-8.401 6.599-15 15-15h16.5c2.1-9.6 5.7-18.3 11.1-26.4l-11.699-11.7c-6-5.7-6-15.3 0-21 5.698-6 15.298-6 20.999 0l11.7 11.701c8.101-5.4 16.8-9 26.4-11.1v-16.5c0-8.401 6.599-15 15-15s15 6.599 15 15v16.5c9.6 2.1 18.3 5.7 26.4 11.1l11.7-11.701c5.7-6 15.3-6 20.999 0 6 5.7 6 15.3 0 21l-11.699 11.7c5.4 8.101 9 16.8 11.1 26.4h16.5c8.401 0 15 6.599 15 15 0 8.399-6.599 15-15 15zm-90-30c-8.284 0-15 6.716-15 15s6.716 15 15 15 15-6.716 15-15-6.716-15-15-15zm251.869-91.729c-51.27-53.965-137.406-118.271-251.869-118.271s-200.6 64.306-251.869 118.271c-5.713 6.006-5.479 15.498.527 21.196 6.006 5.713 15.527 5.493 21.211-.542 47.226-49.687 126.303-108.925 230.131-108.925s182.904 59.238 230.131 108.926c5.641 5.979 15.195 6.284 21.211.542 6.005-5.699 6.24-15.191.527-21.197z" fill="url(#SVGID_2_)"/></g></g></g></svg>